<?xml version="1.0" encoding="UTF-8" standalone="no"?>
<!-- Created with Inkscape (http://www.inkscape.org/) -->

<svg
   xmlns:dc="http://purl.org/dc/elements/1.1/"
   xmlns:cc="http://creativecommons.org/ns#"
   xmlns:rdf="http://www.w3.org/1999/02/22-rdf-syntax-ns#"
   xmlns:svg="http://www.w3.org/2000/svg"
   xmlns="http://www.w3.org/2000/svg"
   xmlns:sodipodi="http://sodipodi.sourceforge.net/DTD/sodipodi-0.dtd"
   xmlns:inkscape="http://www.inkscape.org/namespaces/inkscape"
   width="744.09448819"
   height="1052.3622047"
   id="svg3088"
   version="1.1"
   inkscape:version="0.48.3.1 r9886"
   sodipodi:docname="New document 8">
  <defs
     id="defs3090" />
  <sodipodi:namedview
     id="base"
     pagecolor="#ffffff"
     bordercolor="#666666"
     borderopacity="1.0"
     inkscape:pageopacity="0.0"
     inkscape:pageshadow="2"
     inkscape:zoom="0.35"
     inkscape:cx="375"
     inkscape:cy="520"
     inkscape:document-units="px"
     inkscape:current-layer="layer1"
     showgrid="false"
     inkscape:window-width="451"
     inkscape:window-height="398"
     inkscape:window-x="75"
     inkscape:window-y="75"
     inkscape:window-maximized="0" />
  <metadata
     id="metadata3093">
    <rdf:RDF>
      <cc:Work
         rdf:about="">
        <dc:format>image/svg+xml</dc:format>
        <dc:type
           rdf:resource="http://purl.org/dc/dcmitype/StillImage" />
        <dc:title></dc:title>
      </cc:Work>
    </rdf:RDF>
  </metadata>
  <g
     inkscape:label="Layer 1"
     inkscape:groupmode="layer"
     id="layer1">
    <path
       inkscape:connector-curvature="0"
       style="fill:#ff0000;stroke:none"
       d="m 514.43326,160.15247 c -17.65696,0.2783 -33.73922,4.87718 -49.8125,19.03125 -19.7824,17.4204 -20.36955,17.7284 -25.09375,19.5 -4.7242,1.7716 -28.9375,29.21875 -28.9375,29.21875 0,0 -12.6939,17.737 -13.875,23.9375 -1.181,6.2005 -23.58775,18.04405 -26.40625,41.21875 -2.8186,23.1746 2.6143,47.0802 7.625,53.3437 5.0108,6.2635 2.71875,12.125 2.71875,12.125 0,0 -1.03145,1.2418 8.78125,14.8126 9.8127,13.5706 11.4867,12.1196 7.9375,14.625 -3.5493,2.5054 -9.61625,-3.5717 -18.59375,-9 -8.9776,-5.4284 -29.23275,-29.0072 -61.59375,-40.2813 -32.36109,-11.2742 -48.63819,-20.0579 -52.18749,-17.3437 -3.5493,2.714 -37.459,23.4891 -44.25001,41.5 -6.791,18.0108 -7.0992,39.2758 -2.375,44 4.7241,4.724 5.3125,3.8437 5.3125,3.8437 0,0 10.03221,-25.9881 24.50001,-38.0937 14.4677,-12.1058 27.75,-18.6175 27.75,-20.0938 0,-1.4763 -0.8858,-3.2392 8.5625,4.4375 9.4483,7.6768 32.20574,26.2962 46.96874,31.9063 14.7631,5.6098 15.625,6.7812 15.625,6.7812 0,0 9.4655,14.765 17.4375,20.375 7.972,5.6099 12.4117,7.0862 7.6875,8.5625 -4.7242,1.4763 -8.88035,2.6499 -12.71875,1.4687 -3.8384,-1.181 -25.683,-13.8576 -61.99999,-13.5624 -36.3171,0.2952 -38.08075,0.279 -44.28125,5.5937 -6.2005,5.3147 -33.66486,35.1313 -29.53126,62 4.13371,26.8687 7.68751,29.25 7.68751,29.25 0,0 5.00315,-24.8157 14.15625,-33.9687 9.1531,-9.1531 21.5625,-19.1864 21.5625,-21.8438 0,-2.6573 22.72075,6.7909 43.09375,8.5625 20.37299,1.7716 48.43749,-5.625 48.43749,-5.625 0,0 7.6875,-5.0238 7.6875,2.0625 0,7.0862 -2.375,8.5625 -2.375,8.5625 0,0 -51.65834,36.932 -54.90624,41.6563 -3.2478,4.724 -5.6293,12.9837 -12.125,18.5937 -6.4958,5.6099 -15.3448,24.5053 -12.6875,36.9063 2.6574,12.401 6.20575,31.5926 12.40625,34.25 6.2005,2.6573 9.7436,8.5614 8.5625,2.6562 -1.181,-5.9052 -4.73605,-25.086 3.53125,-43.6875 7.23388,-16.2762 7.46276,-17.634 7.40624,-17.7187 0.17369,-0.016 41.06293,-3.8758 55.5,-24.5 14.4677,-20.6683 12.6875,-25.6876 12.6875,-25.6876 0,0 5.60015,-2.0948 6.78125,0.5626 1.181,2.6574 12.99025,16.5549 19.78125,18.0312 6.791,1.4763 7.082,5.9094 2.0625,6.5 -5.0194,0.5905 -31.86955,10.3232 -36.59375,18 -4.7241,7.6767 -11.2199,16.5237 -8.5625,26.5625 2.6573,10.0389 -1.48385,18.9009 1.46875,23.625 2.9526,4.7242 10.34585,24.4989 22.15625,27.1563 11.8104,2.6574 15.64545,4.4558 16.53125,2.0937 0.8858,-2.362 -13.2845,-19.1896 -13.875,-22.4375 -0.5906,-3.2478 -3.25755,-19.2079 -1.78125,-20.0938 1.4763,-0.8858 8.84375,-10.9288 8.84375,-15.0624 0,-4.1336 2.084,-9.7425 8.875,-11.2188 6.791,-1.4763 26.28125,-4.7316 26.28125,-7.0938 0,-2.3621 1.168,4.1476 23.3125,8.2813 22.1445,4.1336 37.8102,8.5722 51.6875,1.7813 13.8772,-6.7909 19.77465,-7.0906 27.1563,-6.5 7.2441,0.5795 37.5792,-6.5146 38.7187,-6.7813 1.2259,0.2869 31.4542,7.3599 38.6875,6.7813 7.3816,-0.5906 13.3103,-0.2909 27.1875,6.5 13.8773,6.7909 29.5118,2.3523 51.6563,-1.7813 22.1444,-4.1337 23.3124,-10.6434 23.3124,-8.2813 0,2.3622 19.4903,5.6175 26.2813,7.0938 6.791,1.4763 8.875,7.0852 8.875,11.2188 0,4.1336 7.3675,14.1766 8.8437,15.0624 1.4764,0.8859 -1.1594,16.846 -1.75,20.0938 -0.5904,3.2479 -14.792,20.0755 -13.9062,22.4375 0.8858,2.3621 4.7521,0.5637 16.5625,-2.0937 11.8104,-2.6574 19.1724,-22.4321 22.125,-27.1563 2.9526,-4.7241 -1.1885,-13.5861 1.4687,-23.625 2.6575,-10.0388 -3.8384,-18.8858 -8.5624,-26.5625 -4.7243,-7.6768 -31.5744,-17.4095 -36.5938,-18 -5.0195,-0.5906 -4.7285,-5.0237 2.0625,-6.5 6.791,-1.4763 18.6002,-15.3738 19.7813,-18.0312 1.181,-2.6574 6.7812,-0.5626 6.7812,-0.5626 0,0 -1.749,5.0193 12.7188,25.6876 14.4365,20.6235 55.2921,24.4833 55.4687,24.5 -0.056,0.085 0.1724,1.4425 7.4063,17.7187 8.2672,18.6015 4.7435,37.7823 3.5624,43.6875 -1.1811,5.9052 2.3621,0 8.5626,-2.6562 6.2004,-2.6574 9.7175,-21.849 12.375,-34.25 2.6572,-12.401 -6.1917,-31.2964 -12.6876,-36.9063 -6.4956,-5.61 -8.8459,-13.8697 -12.0937,-18.5937 -3.2479,-4.7243 -54.9375,-41.6563 -54.9375,-41.6563 0,0 -2.3438,-1.4763 -2.3438,-8.5625 0,-7.0863 7.6563,-2.0625 7.6563,-2.0625 0,0 28.0645,7.3966 48.4375,5.625 20.373,-1.7716 43.0938,-11.2198 43.0938,-8.5625 0,2.6574 12.4094,12.6907 21.5624,21.8438 9.1531,9.153 14.1876,33.9687 14.1876,33.9687 0,0 3.5225,-2.3813 7.6562,-29.25 4.1336,-26.8687 -23.3308,-56.6853 -29.5312,-62 -6.2005,-5.3147 -7.9642,-5.2985 -44.2813,-5.5937 -36.317,-0.2952 -58.1616,12.3814 -62,13.5624 -3.8384,1.1812 -7.9633,0.01 -12.6875,-1.4687 -4.7242,-1.4763 -0.3157,-2.9526 7.6562,-8.5625 7.9721,-5.61 17.4376,-20.375 17.4376,-20.375 0,0 0.8931,-1.1714 15.6562,-6.7812 14.763,-5.6101 37.4892,-24.2295 46.9375,-31.9063 9.4483,-7.6767 8.5625,-5.9138 8.5625,-4.4375 0,1.4763 13.2823,7.988 27.75,20.0938 14.4678,12.1056 24.5,38.0937 24.5,38.0937 0,0 0.5884,0.8803 5.3125,-3.8437 4.7242,-4.7242 4.4473,-25.9892 -2.3437,-44 -6.791,-18.0109 -40.732,-38.786 -44.2813,-41.5 -3.5493,-2.7142 -19.8264,6.0695 -52.1875,17.3437 -32.361,11.2741 -52.6161,34.8529 -61.5938,40.2813 -8.9774,5.4283 -15.0132,11.5054 -18.5624,9 -3.5492,-2.5054 -1.9065,-1.0544 7.9062,-14.625 9.8127,-13.5708 8.7812,-14.8126 8.7812,-14.8126 0,0 -2.292,-5.8615 2.7188,-12.125 5.0107,-6.2635 10.4436,-30.1691 7.625,-53.3437 -2.8185,-23.1747 -25.194,-35.01825 -26.375,-41.21875 -1.1811,-6.2005 -13.9062,-23.9375 -13.9062,-23.9375 0,0 -24.1821,-27.44715 -28.9063,-29.21875 -4.7242,-1.7716 -5.3426,-2.0796 -25.125,-19.5 -19.7825,-17.4204 -39.5461,-20.36535 -62.2813,-18.59375 -22.735,1.7716 -20.0937,10.34375 -20.0937,10.34375 0,0 -2.359,3.237 17.7187,9.4375 20.0777,6.2004 36.7105,24.5829 50.2813,34.5 13.5707,9.9171 -1.8665,8.14035 -25.25,5.84375 -23.3834,-2.2966 -60.6563,-35.0625 -60.6563,-35.0625 0,0 -3.9657,22.2355 9.1876,48.4375 13.1531,26.202 86.9687,44.875 86.9687,44.875 0,0 0.6035,2.5119 10.625,6.6875 10.0214,4.1756 19.2187,6.6875 19.2187,6.6875 0,0 2.5055,-3.34795 0,8.34375 -2.5054,11.6917 5.8438,40.0937 5.8438,40.0937 l -14.1875,5.8438 4.1563,7.5 c 0,0 -59.2879,-31.7327 -65.9688,-30.0625 -6.681,1.6703 -11.68,-5.0054 -20.0312,-2.5 -8.3513,2.5053 -17.5551,-7.5108 -25.9063,-2.5 -8.3512,5.0107 -10,-6.6563 -10,-6.6563 l -11.75,-3.1562 0,-0.21875 -0.375,0.0937 -0.4063,-0.0937 0,0.21875 -11.7187,3.1562 c 0,0 -1.68,11.667 -10.0313,6.6563 -8.3512,-5.0108 -17.555,5.0053 -25.9062,2.5 -8.3512,-2.5054 -13.35025,4.1703 -20.03125,2.5 -6.6809,-1.6702 -65.96875,30.0625 -65.96875,30.0625 l 4.15625,-7.5 -14.1875,-5.8438 c 0,0 8.34915,-28.402 5.84375,-40.0937 -2.5054,-11.6917 0,-8.34375 0,-8.34375 0,0 9.19735,-2.5119 19.21875,-6.6875 10.0215,-4.1756 10.65625,-6.6875 10.65625,-6.6875 0,0 73.7843,-18.673 86.9375,-44.875 13.1532,-26.202 9.1875,-48.4375 9.1875,-48.4375 0,0 -37.27285,32.7659 -60.65625,35.0625 -23.3835,2.2966 -38.8207,4.07335 -25.25,-5.84375 13.5708,-9.9171 30.20355,-28.2996 50.28125,-34.5 20.0777,-6.2005 17.7187,-9.4375 17.7187,-9.4375 0,0 2.6414,-8.57215 -20.0937,-10.34375 -4.26283,-0.33218 -8.39407,-0.50172 -12.46875,-0.4375 z"
       id="path3056"
       inkscape:export-filename="C:\Users\Lasse\Desktop\crab.png"
       inkscape:export-xdpi="3.9783218"
       inkscape:export-ydpi="3.9783218" />
  </g>
</svg>
