<?xml version="1.0" encoding="UTF-8" standalone="no"?>
<!-- Created with Inkscape (http://www.inkscape.org/) -->

<svg
   xmlns:dc="http://purl.org/dc/elements/1.1/"
   xmlns:cc="http://creativecommons.org/ns#"
   xmlns:rdf="http://www.w3.org/1999/02/22-rdf-syntax-ns#"
   xmlns:svg="http://www.w3.org/2000/svg"
   xmlns="http://www.w3.org/2000/svg"
   xmlns:sodipodi="http://sodipodi.sourceforge.net/DTD/sodipodi-0.dtd"
   xmlns:inkscape="http://www.inkscape.org/namespaces/inkscape"
   width="744.09448819"
   height="1052.3622047"
   id="svg2"
   version="1.1"
   inkscape:version="0.48.3.1 r9886"
   sodipodi:docname="New document 1">
  <defs
     id="defs4" />
  <sodipodi:namedview
     id="base"
     pagecolor="#ffffff"
     bordercolor="#666666"
     borderopacity="1.0"
     inkscape:pageopacity="0.0"
     inkscape:pageshadow="2"
     inkscape:zoom="3.959798"
     inkscape:cx="183.3277"
     inkscape:cy="602.15844"
     inkscape:document-units="px"
     inkscape:current-layer="layer1"
     showgrid="false"
     showguides="true"
     inkscape:guide-bbox="true"
     inkscape:window-width="1920"
     inkscape:window-height="1018"
     inkscape:window-x="-8"
     inkscape:window-y="-8"
     inkscape:window-maximized="1" />
  <metadata
     id="metadata7">
    <rdf:RDF>
      <cc:Work
         rdf:about="">
        <dc:format>image/svg+xml</dc:format>
        <dc:type
           rdf:resource="http://purl.org/dc/dcmitype/StillImage" />
        <dc:title></dc:title>
      </cc:Work>
    </rdf:RDF>
  </metadata>
  <g
     inkscape:label="Layer 1"
     inkscape:groupmode="layer"
     id="layer1">
    <path
       style="fill:#000000;fill-opacity:1;stroke:none"
       d="m 140.39451,456.68163 c -0.11318,0 -0.1875,0.10795 -0.1875,0.21875 l 0,0.84375 c -0.53949,0.0163 -0.96875,0.45641 -0.96875,1 l 0,5 c 0,0.554 0.446,1 1,1 l 8.96875,0 c 0.554,0 1,-0.446 1,-1 l 0,-5 c 0,-0.554 -0.446,-1 -1,-1 l -6,0 0,-0.84375 c 0,-0.1108 -0.0743,-0.21875 -0.1875,-0.21875 l -2.625,0 z m 4.3125,2.53125 c 1.16107,0 2.125,0.93268 2.125,2.09375 0,1.16106 -0.96393,2.125 -2.125,2.125 -1.16106,0 -2.125,-0.96394 -2.125,-2.125 0,-1.16107 0.96394,-2.09375 2.125,-2.09375 z m 0,0.6875 c -0.77612,0 -1.40625,0.63012 -1.40625,1.40625 0,0.77612 0.63013,1.40625 1.40625,1.40625 0.77613,0 1.40625,-0.63013 1.40625,-1.40625 0,-0.77613 -0.63012,-1.40625 -1.40625,-1.40625 z"
       id="rect3270"
       inkscape:connector-curvature="0"
       inkscape:export-xdpi="101.79496"
       inkscape:export-ydpi="101.79496"
       inkscape:export-filename="C:\Users\Lasse\path33223.png" />
    <path
       style="fill:none;stroke:#000000;stroke-width:1px;stroke-linecap:butt;stroke-linejoin:miter;stroke-opacity:1"
       d="m 151.09221,458.98322 0,5.42957 c 0,0 0.23596,1.23112 -1.23113,1.23112 -1.38896,0 -9.37547,0 -9.37547,0"
       id="path3320"
       inkscape:connector-curvature="0"
       sodipodi:nodetypes="ccsc"
       inkscape:export-filename="C:\Users\Lasse\path33223.png"
       inkscape:export-xdpi="101.79496"
       inkscape:export-ydpi="101.79496" />
  </g>
</svg>
