<?xml version="1.0" encoding="UTF-8" standalone="no"?>
<!-- Created with Inkscape (http://www.inkscape.org/) -->

<svg
   xmlns:dc="http://purl.org/dc/elements/1.1/"
   xmlns:cc="http://creativecommons.org/ns#"
   xmlns:rdf="http://www.w3.org/1999/02/22-rdf-syntax-ns#"
   xmlns:svg="http://www.w3.org/2000/svg"
   xmlns="http://www.w3.org/2000/svg"
   xmlns:sodipodi="http://sodipodi.sourceforge.net/DTD/sodipodi-0.dtd"
   xmlns:inkscape="http://www.inkscape.org/namespaces/inkscape"
   width="20.77429"
   height="349.90863"
   id="svg2"
   version="1.1"
   inkscape:version="0.48.3.1 r9886"
   sodipodi:docname="modmenu_icons.svg">
  <defs
     id="defs4">
    <marker
       inkscape:stockid="Arrow2Lend"
       orient="auto"
       refY="0"
       refX="0"
       id="Arrow2Lend"
       style="overflow:visible">
      <path
         id="path4656"
         style="fill-rule:evenodd;stroke-width:0.625;stroke-linejoin:round"
         d="M 8.7185878,4.0337352 -2.2072895,0.01601326 8.7185884,-4.0017078 c -1.7454984,2.3720609 -1.7354408,5.6174519 -6e-7,8.035443 z"
         transform="matrix(-1.1,0,0,-1.1,-1.1,0)"
         inkscape:connector-curvature="0" />
    </marker>
    <inkscape:path-effect
       effect="spiro"
       id="path-effect4157"
       is_visible="true" />
    <inkscape:path-effect
       effect="spiro"
       id="path-effect3879"
       is_visible="true" />
  </defs>
  <sodipodi:namedview
     id="base"
     pagecolor="#ffffff"
     bordercolor="#666666"
     borderopacity="1.0"
     inkscape:pageopacity="0.0"
     inkscape:pageshadow="2"
     inkscape:zoom="2.8284271"
     inkscape:cx="15.904293"
     inkscape:cy="266.8234"
     inkscape:document-units="px"
     inkscape:current-layer="layer1"
     showgrid="false"
     showguides="false"
     inkscape:guide-bbox="true"
     inkscape:window-width="1920"
     inkscape:window-height="1018"
     inkscape:window-x="-8"
     inkscape:window-y="-8"
     inkscape:window-maximized="1"
     fit-margin-top="0"
     fit-margin-left="0"
     fit-margin-right="0"
     fit-margin-bottom="0">
    <sodipodi:guide
       orientation="0,1"
       position="430.99651,-58.425557"
       id="guide3018" />
    <sodipodi:guide
       orientation="0,1"
       position="431.74651,-64.003677"
       id="guide3020" />
    <sodipodi:guide
       orientation="0,1"
       position="261.23982,-253.48213"
       id="guide4142" />
    <sodipodi:guide
       orientation="0,1"
       position="249.57256,-273.10434"
       id="guide4144" />
    <sodipodi:guide
       orientation="0,1"
       position="-152.36287,179.21507"
       id="guide5326" />
    <sodipodi:guide
       orientation="0,1"
       position="-155.61287,159.34007"
       id="guide5328" />
    <sodipodi:guide
       orientation="1,0"
       position="-163.73787,172.96507"
       id="guide5330" />
    <sodipodi:guide
       orientation="1,0"
       position="2.2621316,131.21507"
       id="guide7071" />
    <sodipodi:guide
       orientation="1,0"
       position="18.262132,122.96507"
       id="guide7073" />
  </sodipodi:namedview>
  <metadata
     id="metadata7">
    <rdf:RDF>
      <cc:Work
         rdf:about="">
        <dc:format>image/svg+xml</dc:format>
        <dc:type
           rdf:resource="http://purl.org/dc/dcmitype/StillImage" />
        <dc:title></dc:title>
      </cc:Work>
    </rdf:RDF>
  </metadata>
  <g
     inkscape:label="Layer 1"
     inkscape:groupmode="layer"
     id="layer1"
     transform="translate(401.51213,91.081361)">
    <path
       style="fill:#550000;fill-opacity:1;stroke:none"
       d="m -392.85058,-29.1021 c -1.8105,2.965312 -3.95279,2.466097 -6.13648,2.933663 0,0 -0.81322,6.18252 1.31967,8.829469 2.13291,2.646972 6.53239,6.095191 6.53239,6.095191 0,0 4.39943,-3.448219 6.53235,-6.095191 2.13289,-2.646949 1.35265,-8.829469 1.35265,-8.829469 -2.18367,-0.467566 -4.32595,0.03169 -6.13644,-2.933663 l -1.74856,0 -1.71558,0 z"
       id="path2988-1"
       inkscape:connector-curvature="0"
       inkscape:export-filename="C:\Users\Lasse\Documents\GitHub\r-wow\images\icons\modicons_test_large.png"
       inkscape:export-xdpi="69.199997"
       inkscape:export-ydpi="69.199997" />
    <path
       sodipodi:type="arc"
       style="fill:#4d4d4d;fill-opacity:1;stroke:#1a1a1a"
       id="path3864"
       sodipodi:cx="-285.8479"
       sodipodi:cy="532.46191"
       sodipodi:rx="49.674252"
       sodipodi:ry="25.63262" />
    <g
       id="g4037"
       transform="matrix(0.74890764,0,0,0.74890764,-284.21843,-138.21081)"
       inkscape:export-filename="C:\Users\Lasse\Documents\GitHub\r-wow\images\icons\modicons_test_large.png"
       inkscape:export-xdpi="69.199997"
       inkscape:export-ydpi="69.199997">
      <path
         inkscape:connector-curvature="0"
         id="path3963"
         d="m -142.75,516.1875 c -4.15539,0 -7.89581,2.70939 -10.51532,7 2.61951,4.2906 6.35993,6.96875 10.51532,6.96875 4.15539,0 7.89581,-2.67815 10.51532,-6.96875 -2.61951,-4.29061 -6.35993,-7 -10.51532,-7 z m -0.0378,2.51651 c 3.07892,0 5.87873,1.46353 7.81966,4.48349 -1.94093,3.01995 -4.74074,4.49008 -7.81966,4.49008 -3.07892,0 -5.8277,-1.47013 -7.76863,-4.49008 1.94093,-3.01996 4.68971,-4.48349 7.76863,-4.48349 z"
         style="fill:#550000;fill-opacity:1;stroke:none"
         sodipodi:nodetypes="scscsscscs" />
      <path
         sodipodi:nodetypes="scscs"
         inkscape:connector-curvature="0"
         id="path3963-8"
         d="m -142.75,519.84236 c -1.9809,0 -4.52068,1.2916 -5.76942,3.33696 1.24874,2.04537 3.78852,3.32207 5.76942,3.32207 1.9809,0 4.29367,-1.2767 5.54241,-3.32207 -1.24874,-2.04536 -3.56151,-3.33696 -5.54241,-3.33696 z"
         style="fill:#550000;fill-opacity:1;stroke:none" />
      <path
         transform="matrix(0.96574033,0.3283735,-0.25876934,1.2255066,129.73472,-71.555377)"
         d="m -139.12326,522.12048 c 0,0.41494 -0.91017,0.7513 -2.03293,0.7513 -1.12276,0 -2.03293,-0.33636 -2.03293,-0.7513 0,-0.41493 0.91017,-0.7513 2.03293,-0.7513 1.12276,0 2.03293,0.33637 2.03293,0.7513 z"
         sodipodi:ry="0.75130093"
         sodipodi:rx="2.032932"
         sodipodi:cy="522.12048"
         sodipodi:cx="-141.15619"
         id="path4033"
         style="fill:#ffffff;fill-opacity:1;stroke:none"
         sodipodi:type="arc" />
    </g>
    <g
       transform="matrix(0.76751703,0,0,0.76751703,-449.39079,-40.205493)"
       id="g4171"
       inkscape:export-filename="C:\Users\Lasse\Documents\GitHub\r-wow\images\icons\modicons_test_large.png"
       inkscape:export-xdpi="69.199997"
       inkscape:export-ydpi="69.199997"
       style="fill:#550000;fill-opacity:1">
      <g
         id="g4130"
         transform="matrix(0.48215501,0,0,0.48215501,64.341467,-22.871801)">
        <path
           style="fill:#550000;fill-opacity:1;fill-rule:evenodd;stroke:#ffffff;stroke-width:0.21520807px;stroke-linecap:butt;stroke-linejoin:miter;stroke-opacity:1"
           id="path3882"
           d="m 39.25661,15.998439 3.324198,-1.38348 3.516347,1.325835 1.172114,3.016755 -0.518805,2.805392 -2.11365,1.268191 -5.380204,-7.032693 z"
           inkscape:connector-curvature="0"
           inkscape:export-filename="C:\Users\Lasse\Documents\GitHub\r-wow\images\icons\reddit.png"
           inkscape:export-xdpi="30.01"
           inkscape:export-ydpi="30.01" />
        <path
           style="fill:#550000;fill-opacity:1;stroke:none"
           id="path3855"
           d="m 43.918555,24.298859 c 2.336269,-0.571841 4.076566,-2.696838 4.076562,-5.204929 -6e-6,-2.941578 -2.393859,-5.335436 -5.335441,-5.335443 -1.943983,0 -3.657823,1.045499 -4.596689,2.603653 m 1.317371,0.981279 c 0.624525,-1.163017 1.855754,-1.944856 3.279318,-1.944856 2.059306,9e-6 3.716124,1.636066 3.716124,3.695367 3e-6,1.779426 -1.237072,3.258341 -2.901954,3.627464"
           inkscape:connector-curvature="0"
           inkscape:export-filename="C:\Users\Lasse\Documents\GitHub\r-wow\images\icons\reddit.png"
           inkscape:export-xdpi="30.01"
           inkscape:export-ydpi="30.01" />
        <path
           style="fill:#550000;fill-opacity:1;fill-rule:evenodd;stroke:#ffffff;stroke-width:0.21520807px;stroke-linecap:butt;stroke-linejoin:miter;stroke-opacity:1"
           id="path3884"
           d="m 8.7527882,15.690999 -3.3241962,-1.38348 -3.5163473,1.325835 -1.172116,3.016756 0.5188059,2.805391 2.1136515,1.268191 5.3802021,-7.032693 z"
           inkscape:connector-curvature="0"
           inkscape:export-filename="C:\Users\Lasse\Documents\GitHub\r-wow\images\icons\reddit.png"
           inkscape:export-xdpi="30.01"
           inkscape:export-ydpi="30.01" />
        <path
           style="fill:#550000;fill-opacity:1;stroke:none"
           id="path3862"
           d="M 4.0875329,24.298859 C 1.7512641,23.727018 0.01096711,21.602021 0.01097141,19.09393 c 6.46e-6,-2.941578 2.39385889,-5.335436 5.33544059,-5.335443 1.943983,0 3.6578228,1.045499 4.5966907,2.603653 M 8.625731,17.343419 C 8.001206,16.180402 6.7699767,15.398563 5.346412,15.398563 c -2.0593043,9e-6 -3.7161229,1.636066 -3.7161241,3.695367 -2.4e-6,1.779426 1.2370734,3.258341 2.9019553,3.627464"
           inkscape:connector-curvature="0"
           inkscape:export-filename="C:\Users\Lasse\Documents\GitHub\r-wow\images\icons\reddit.png"
           inkscape:export-xdpi="30.01"
           inkscape:export-ydpi="30.01" />
        <path
           style="fill:#550000;fill-opacity:1;stroke:#550000;stroke-width:1.61406052;stroke-miterlimit:4;stroke-opacity:1;stroke-dasharray:none;stroke-dashoffset:0"
           id="path3334"
           d="m 44.657284,25.430268 c 0,7.455043 -9.310323,13.498547 -20.795187,13.498547 -11.484865,0 -20.7951863,-6.043504 -20.7951863,-13.498547 0,-7.455043 9.3103213,-13.498548 20.7951863,-13.498548 11.484864,0 20.795187,6.043505 20.795187,13.498548 z"
           inkscape:connector-curvature="0"
           inkscape:export-filename="C:\Users\Lasse\Documents\GitHub\r-wow\images\icons\reddit.png"
           inkscape:export-xdpi="30.01"
           inkscape:export-ydpi="30.01" />
        <path
           style="fill:none;stroke:#550000;stroke-width:4;stroke-linecap:butt;stroke-linejoin:miter;stroke-miterlimit:4;stroke-opacity:1;stroke-dasharray:none"
           id="path3845"
           d="m 23.82326,11.928743 3.69568,-10.9239986 8.773651,2.002438"
           inkscape:connector-curvature="0"
           inkscape:export-filename="C:\Users\Lasse\Documents\GitHub\r-wow\images\icons\reddit.png"
           inkscape:export-xdpi="30.01"
           inkscape:export-ydpi="30.01" />
        <path
           style="fill:#550000;fill-opacity:1;stroke:none"
           id="path3849"
           d="m 20.089533,22.744042 c 0,1.81595 -1.472118,3.288069 -3.288069,3.288069 -1.815949,0 -3.288069,-1.472119 -3.288069,-3.288069 0,-1.81595 1.47212,-3.288069 3.288069,-3.288069 1.815951,0 3.288069,1.472119 3.288069,3.288069 z"
           inkscape:connector-curvature="0"
           inkscape:export-filename="C:\Users\Lasse\Documents\GitHub\r-wow\images\icons\reddit.png"
           inkscape:export-xdpi="30.01"
           inkscape:export-ydpi="30.01" />
        <path
           style="fill:#550000;fill-opacity:1;stroke:none"
           id="path3851"
           d="m 34.573338,22.744042 c 0,1.81595 -1.47212,3.288069 -3.28807,3.288069 -1.815949,0 -3.288069,-1.472119 -3.288069,-3.288069 0,-1.81595 1.47212,-3.288069 3.288069,-3.288069 1.81595,0 3.28807,1.472119 3.28807,3.288069 z"
           inkscape:connector-curvature="0"
           inkscape:export-filename="C:\Users\Lasse\Documents\GitHub\r-wow\images\icons\reddit.png"
           inkscape:export-xdpi="30.01"
           inkscape:export-ydpi="30.01" />
        <path
           style="fill:#550000;fill-opacity:1;stroke:#550000;stroke-width:1.56638479;stroke-miterlimit:4;stroke-opacity:1;stroke-dasharray:none;stroke-dashoffset:0"
           id="path3853"
           d="m 43.124322,3.8852076 c 0,2.0328639 -1.64796,3.6808247 -3.680824,3.6808247 -2.032863,0 -3.680824,-1.6479608 -3.680824,-3.6808247 0,-2.032863 1.647961,-3.68082426 3.680824,-3.68082426 2.032864,0 3.680824,1.64796126 3.680824,3.68082426 z"
           inkscape:connector-curvature="0"
           inkscape:export-filename="C:\Users\Lasse\Documents\GitHub\r-wow\images\icons\reddit.png"
           inkscape:export-xdpi="30.01"
           inkscape:export-ydpi="30.01" />
        <path
           style="fill:#550000;fill-opacity:1;fill-rule:evenodd;stroke:none"
           id="path3864-8"
           d="m 17.188176,30.708364 c -0.776547,-0.600887 -1.946348,0.666116 -1.162509,1.285485 1.997523,1.613808 4.68544,2.456232 7.677355,2.556555 2.991915,0.100325 6.105165,-0.648469 8.426742,-2.622847 0.648416,-0.735121 -0.196658,-1.89296 -1.116391,-1.311426 -1.900408,1.616197 -4.59503,2.308579 -7.256547,2.219335 -2.661518,-0.08924 -4.965308,-0.831754 -6.56865,-2.127102 z"
           inkscape:connector-curvature="0"
           inkscape:export-filename="C:\Users\Lasse\Documents\GitHub\r-wow\images\icons\reddit.png"
           inkscape:export-xdpi="30.01"
           inkscape:export-ydpi="30.01" />
      </g>
    </g>
    <path
       style="fill:#550000;fill-opacity:1;stroke:none"
       d="m -391.125,154.21455 c -4.48698,0 -8.12555,3.63857 -8.12555,8.12555 0,4.48698 3.63858,8.12555 8.12555,8.12555 4.48698,0 8.12555,-3.63857 8.12555,-8.12555 0,-4.48698 -3.63857,-8.12555 -8.12555,-8.12555 z m -4.03296,6.91127 8.09717,0 c 0.91753,0 1.65617,0.36687 1.65617,1.21428 0,0.84742 -0.73865,1.18304 -1.65617,1.18304 l -8.09717,0 c -0.91752,0 -1.65617,-0.33562 -1.65617,-1.18304 0,-0.84741 0.73866,-1.21428 1.65617,-1.21428 z"
       id="path4146"
       inkscape:connector-curvature="0"
       inkscape:export-filename="C:\Users\Lasse\Documents\GitHub\r-wow\images\icons\modicons_test_large.png"
       inkscape:export-xdpi="69.199997"
       inkscape:export-ydpi="69.199997"
       sodipodi:nodetypes="ssssssssssss" />
    <g
       id="g4369"
       transform="matrix(0.99894289,0,0,0.88007158,-202.57453,-453.25793)"
       inkscape:export-filename="C:\Users\Lasse\Documents\GitHub\r-wow\images\icons\modicons_test_large.png"
       inkscape:export-xdpi="69.199997"
       inkscape:export-ydpi="69.199997">
      <path
         inkscape:connector-curvature="0"
         id="path4153-5-5"
         d="m -190.34597,517.33794 c -2.00603,0 -3.625,1.65022 -3.625,3.65625 0,1.61597 1.06998,2.93252 2.53125,3.40625 l -0.4375,0 c -0.97794,0 -1.85305,0.48315 -2.46875,1.125 -0.6157,0.64185 -1.01385,1.42417 -1.03125,2.1875 l 0,0.0312 c -0.002,1.10379 0.35638,2.64944 2.0625,3.59375 l 0,0.0312 c 0.0617,0.0575 0.21306,0.36128 0.3125,0.78125 0.0994,0.41997 0.17815,0.93669 0.21875,1.4375 0.0812,1.00162 0.0625,1.90625 0.0625,1.90625 l 0,0.5 0.46875,0 1.84375,0 c 0,0 0.0128,-0.41307 0,-0.9375 l -1.375,0 c 0.002,-0.30692 0.003,-0.72004 -0.0625,-1.53125 -0.043,-0.52992 -0.10107,-1.09676 -0.21875,-1.59375 -0.11768,-0.49699 -0.24359,-0.95499 -0.59375,-1.28125 l -0.0625,-0.0312 -0.0625,-0.0312 c -1.49194,-0.7605 -1.62686,-1.86234 -1.625,-2.84375 0.009,-0.40065 0.27063,-1.06277 0.75,-1.5625 0.47937,-0.49973 1.13721,-0.84375 1.78125,-0.84375 0.62355,-0.57181 1.42388,-1 2.34375,-1 l 0.4375,0 c -0.43975,-0.14844 -0.83221,-0.37418 -1.1875,-0.65625 -0.0215,5e-4 -0.0409,0 -0.0625,0 -1.49059,0 -2.6875,-1.19691 -2.6875,-2.6875 0,-1.32589 0.9604,-2.39953 2.21875,-2.625 0.32917,-0.3965 0.72541,-0.73131 1.1875,-0.96875 -0.23711,-0.049 -0.468,-0.0625 -0.71875,-0.0625 z m 2.09375,0.65625 c -0.46547,0.0572 -0.8848,0.21447 -1.25,0.46875 1.07243,0.3525 1.84375,1.33676 1.84375,2.53125 0,1.02478 -0.5683,1.89009 -1.40625,2.34375 0.35414,0.15989 0.74042,0.25 1.15625,0.25 0.0214,0 0.0412,4.7e-4 0.0625,0 0.70656,-0.64765 1.15625,-1.55438 1.15625,-2.59375 0,-1.22966 -0.62051,-2.33586 -1.5625,-3 z m 0,7.34375 c 0.64404,0 1.30189,0.34402 1.78125,0.84375 0.47936,0.49973 0.74084,1.16183 0.75,1.5625 0.002,0.98165 -0.13309,2.08326 -1.625,2.84375 l -0.0625,0.0312 -0.0625,0.0312 c -0.35013,0.32626 -0.47607,0.78427 -0.59375,1.28125 -0.11768,0.49698 -0.17578,1.06383 -0.21875,1.59375 -0.0658,0.81121 -0.0644,1.22433 -0.0625,1.53125 l -1.0625,0 c 0.002,0.16269 7.4e-4,0.31795 0,0.4375 l 2,0 c 0,0 -0.0187,-0.90463 0.0625,-1.90625 0.0406,-0.50081 0.11931,-1.01753 0.21875,-1.4375 0.0994,-0.41997 0.25081,-0.72376 0.3125,-0.78125 l 0,-0.0312 c 1.70612,-0.94432 2.06422,-2.49019 2.0625,-3.59375 l 0,-0.0312 c -0.0174,-0.76331 -0.41556,-1.54565 -1.03125,-2.1875 -0.0667,-0.0696 -0.14611,-0.12206 -0.21875,-0.1875 l -2.25,0 z"
         style="font-size:medium;font-style:normal;font-variant:normal;font-weight:normal;font-stretch:normal;text-indent:0;text-align:start;text-decoration:none;line-height:normal;letter-spacing:normal;word-spacing:normal;text-transform:none;direction:ltr;block-progression:tb;writing-mode:lr-tb;text-anchor:start;baseline-shift:baseline;color:#000000;fill:#550000;fill-opacity:1;stroke:none;stroke-width:0.95505625;marker:none;visibility:visible;display:inline;overflow:visible;enable-background:accumulate;font-family:Sans;-inkscape-font-specification:Sans" />
      <path
         id="path4153-5"
         d="m -187.46653,517.46294 c -1.83058,0 -3.3125,1.48192 -3.3125,3.3125 0,1.83058 1.48192,3.3125 3.3125,3.3125 1.83058,0 3.3125,-1.48192 3.3125,-3.3125 0,-1.83058 -1.48192,-3.3125 -3.3125,-3.3125 z m -1.625,7.375 c -1.69831,0 -3.12846,1.78124 -3.15625,3 -0.002,1.10742 0.26041,2.55076 2,3.4375 0.86249,0.80362 0.78125,4.71875 0.78125,4.71875 l 4.5625,0 c 0,0 -0.0812,-3.91513 0.78125,-4.71875 1.73959,-0.88674 2.00173,-2.33008 2,-3.4375 -0.0278,-1.21876 -1.45794,-3 -3.15625,-3 l -3.8125,0 z"
         style="fill:#550000;fill-opacity:1;stroke:none"
         inkscape:connector-curvature="0" />
    </g>
    <path
       style="fill:#550000;fill-opacity:1;stroke:none"
       d="m -391.125,123.73271 c -4.5275,0 -8.20523,3.67772 -8.20523,8.20522 0,4.52749 3.67773,8.17187 8.20523,8.17187 4.5275,0 8.20523,-3.64438 8.20523,-8.17187 0,-4.5275 -3.67773,-8.20522 -8.20523,-8.20522 z m -0.13342,2.63501 c 0.48181,0 0.88243,0.12468 1.20078,0.40025 0.31832,0.27558 0.50032,0.60578 0.50032,0.96728 0,0.40893 -0.23693,1.28305 -0.6671,2.60165 -0.4302,1.31862 -0.63374,2.49256 -0.63373,3.53561 l -0.73381,0 c -3e-5,-0.97786 -0.21216,-2.17405 -0.63373,-3.6023 -0.42159,-1.42824 -0.63374,-2.28011 -0.63374,-2.53496 0,-0.3615 0.13247,-0.6917 0.4336,-0.96728 0.30113,-0.27557 0.69421,-0.40025 1.16741,-0.40025 z m 0.0333,8.20523 c 0.34283,0 0.65375,0.10978 0.90057,0.36689 0.24684,0.25712 0.36692,0.55776 0.36692,0.90057 0,0.34283 -0.12008,0.65375 -0.36692,0.90059 -0.24682,0.24682 -0.54405,0.3669 -0.90057,0.36689 -0.34969,1e-5 -0.65719,-0.12007 -0.90057,-0.36689 -0.2434,-0.24684 -0.3669,-0.55776 -0.3669,-0.90059 0,-0.34968 0.14999,-0.64687 0.40025,-0.90057 0.25027,-0.25366 0.51756,-0.36689 0.86722,-0.36689 z"
       id="path4146-7"
       inkscape:connector-curvature="0"
       inkscape:export-filename="C:\Users\Lasse\Documents\GitHub\r-wow\images\icons\modicons_test_large.png"
       inkscape:export-xdpi="69.199997"
       inkscape:export-ydpi="69.199997" />
    <g
       id="g5524"
       transform="matrix(0.69155493,0,0,0.69155493,-41.873388,-18.200634)"
       inkscape:export-filename="C:\Users\Lasse\Documents\GitHub\r-wow\images\icons\modicons_test_large.png"
       inkscape:export-xdpi="69.199997"
       inkscape:export-ydpi="69.199997">
      <g
         id="g5536"
         transform="matrix(1.0978199,0,0,1.0978199,50.455111,-12.540593)">
        <rect
           style="fill:#550000;fill-opacity:1;stroke:none"
           id="rect5274"
           width="3.7804198"
           height="7.8379226"
           x="-515.79596"
           y="90.287193" />
        <rect
           style="fill:#550000;fill-opacity:1;stroke:none"
           id="rect5274-4"
           width="3.7804198"
           height="10.002255"
           x="-510.5145"
           y="88.122864" />
        <rect
           style="fill:#550000;fill-opacity:1;stroke:none"
           id="rect5274-8"
           width="3.7804198"
           height="14.142387"
           x="-505.233"
           y="83.982727" />
        <rect
           style="fill:#550000;fill-opacity:1;stroke:none"
           id="rect5274-6"
           width="3.7804198"
           height="18.332298"
           x="-499.95151"
           y="79.792816" />
      </g>
    </g>
    <path
       style="fill:#550000;fill-opacity:1;stroke:none"
       d="m -399.24999,107.89822 c 0,0 4.4932,-3.45053 8.57491,-1.37523 5.23476,2.66156 7.69846,-1.90705 7.67496,-1.95666 l 0,-9.459716 c 0,0 -4.64234,3.70384 -8.58502,1.375229 -4.9837,-2.943437 -7.67736,1.784404 -7.66485,1.830256 0,3.195381 0,6.390751 0,9.586121 z"
       id="path5542"
       inkscape:connector-curvature="0"
       sodipodi:nodetypes="csccscc"
       inkscape:export-filename="C:\Users\Lasse\Documents\GitHub\r-wow\images\icons\modicons_test_large.png"
       inkscape:export-xdpi="69.199997"
       inkscape:export-ydpi="69.199997" />
    <g
       id="g5616"
       transform="matrix(1.3370913,0,0,1.3370913,144.87272,25.970862)"
       inkscape:export-filename="C:\Users\Lasse\Documents\GitHub\r-wow\images\icons\modicons_test_large.png"
       inkscape:export-xdpi="69.199997"
       inkscape:export-ydpi="69.199997">
      <path
         inkscape:connector-curvature="0"
         id="path5575"
         d="m -402.03203,-82.82543 -0.99983,1.328429 -0.82852,-0.01185 -1.02406,-1.292349 -1.13343,0.48752 0.21925,1.523994 -0.79243,0.670143 -1.51159,-0.182619 -0.48753,1.096793 1.29235,0.987439 -0.0124,1.072553 -1.20669,0.889934 0.49992,1.121572 1.47496,-0.122284 0.67014,0.634052 -0.14598,1.584855 1.0844,0.414263 1.10972,-1.340828 0.71917,0.02424 1.0844,1.414089 1.24332,-0.573177 -0.20686,-1.499204 0.62166,-0.645903 1.52344,0.219252 0.54841,-1.267561 -1.25518,-0.901787 0,-1.024068 1.25518,-0.914174 -0.47514,-1.267564 -1.51159,0.195009 -0.74341,-0.634048 0.17077,-1.462571 -1.18245,-0.52416 z m -1.41409,3.656694 c 0.83478,0 1.5116,0.676823 1.5116,1.511593 0,0.834772 -0.67682,1.511596 -1.5116,1.511596 -0.83476,0 -1.51159,-0.676824 -1.51159,-1.511596 0,-0.83477 0.67683,-1.511593 1.51159,-1.511593 z"
         style="fill:#550000;fill-opacity:1;stroke:#000000;stroke-width:0.01723842px;stroke-linecap:butt;stroke-linejoin:miter;stroke-opacity:1" />
      <path
         inkscape:connector-curvature="0"
         id="path5575-6"
         d="m -396.84521,-87.495692 -0.43357,1.074936 -0.56005,0.141511 -0.92276,-0.685467 -0.67527,0.532791 0.42262,0.986665 -0.41269,0.594239 -1.05082,0.149766 -0.1304,0.826522 1.0484,0.43174 0.18518,0.724471 -0.65199,0.816987 0.539,0.66504 0.97115,-0.348472 0.56566,0.306043 0.18765,1.093546 0.80496,0.0833 0.50533,-1.103112 0.48865,-0.113438 0.98536,0.756557 0.7338,-0.610298 -0.40979,-0.972208 0.30207,-0.547104 1.06541,-0.127236 0.14058,-0.952498 -1.00793,-0.38077 -0.18476,-0.689585 0.68026,-0.842059 -0.54866,-0.767819 -0.98268,0.404052 -0.615,-0.29282 -0.1489,-1.015675 -0.89081,-0.139607 z m -0.29244,2.717484 c 0.56213,-0.15062 1.14,0.183018 1.29062,0.745134 0.15062,0.562118 -0.18302,1.139995 -0.74514,1.290616 -0.56211,0.150616 -1.13999,-0.183021 -1.29061,-0.745138 -0.15062,-0.562116 0.18303,-1.139995 0.74513,-1.290612 z"
         style="fill:#550000;fill-opacity:1;stroke:#000000;stroke-width:0.01201746px;stroke-linecap:butt;stroke-linejoin:miter;stroke-opacity:1" />
    </g>
    <path
       style="fill:#550000;fill-opacity:1;fill-rule:nonzero;stroke:none"
       d="m -391.12616,62.791676 c -4.57921,0 -8.29075,3.71385 -8.29075,8.29306 0,4.57938 3.71154,8.29075 8.29075,8.29075 4.57879,0 8.29307,-3.71132 8.29307,-8.29075 0,-4.57921 -3.71428,-8.29306 -8.29307,-8.29306 z m -0.0533,1.46907 0.68355,0.26647 -0.31513,0.80173 c -0.38544,0.17829 -0.7484,0.32183 -1.15393,0.44721 l -0.26415,0.41477 -0.20855,0.12049 -0.31513,-0.62562 0.23634,-0.23867 0,-0.23635 -0.60477,-0.41708 0.18305,-0.17843 0.97321,-0.26647 0.78551,-0.088 z m -4.04111,1.01035 0.20855,0.0278 0.15755,0.0904 -0.0254,0.32672 -0.28966,0.26647 -0.65575,0.38696 0.0788,0.26647 0.4982,0.20855 0.0788,0.35684 0.18537,-0.38697 0.28733,-0.11818 -0.0254,-0.17841 0.28963,-0.50515 0.3661,0.20855 -0.051,0.23635 0.31513,-0.11818 0.1298,0.26879 -0.0534,0.17842 0.18538,0.058 0.15755,0.14829 -0.0534,0.17842 -0.4472,0.1483 -0.31283,0 -0.44719,0.20855 0.70904,0 -0.23635,0.35683 -0.47269,0.0904 -0.21087,0.2966 -0.3661,0.1483 -0.18306,0.44488 -0.5005,0.41708 -0.051,0.5932 -0.28965,-0.35685 -0.39391,-0.088 -0.0534,0.17842 -0.3128,0 -0.39391,0.29659 -0.0534,0.35685 0.0255,0.32671 0.26417,0.14829 0.18304,-0.0904 0.18306,-0.23634 0.18305,0 c -0.0265,0.20803 -0.0525,0.41523 -0.0788,0.62331 l 0.31514,-0.0301 0,0.32673 0.10654,0.2989 c 0.12733,0.0783 0.30189,0.0839 0.4449,0.12512 l 0,-0.0672 0.47269,-0.41476 0.44722,0.32672 0.52367,-0.0603 0.21086,0.56537 0.39391,0.0881 0.21087,0.41708 c 0.42774,0.22002 0.85506,0.43972 1.28602,0.65343 l -0.0533,0.44489 -0.31516,0.44721 0.0533,0.59319 -0.21086,0.47502 -0.39391,0.0904 -0.18306,0.26647 0.0788,0.17841 -0.26185,0.65344 -0.34293,0.11809 -0.0788,0.20854 -0.20855,0.20855 0.051,0.14826 c 0,0 -0.043,0.0346 -0.095,0.0742 -0.0523,0.0388 -0.87412,-0.41815 -0.89442,-0.4866 -0.0201,-0.0683 -0.008,-0.0626 -0.008,-0.0626 l 0.15757,-0.68355 -0.15757,-0.35684 0.0254,-0.62332 -0.21085,-0.29658 -0.47038,-0.41711 -0.47269,-0.86197 0.12978,-0.44489 -0.051,-0.11818 0.15757,-0.23865 0.20854,-0.5654 0,-0.0464 -0.15756,-0.0718 -0.20855,0.0301 -0.36843,-0.26879 -0.23635,-0.29659 -0.55148,-0.14829 -0.55147,-0.32672 c 0,0 -0.23223,-0.3636 -0.24562,-0.42636 0.33836,-2.70695 1.7956,-4.14152 2.51643,-4.80576 0.0565,-0.014 0.27573,-0.0556 0.27573,-0.0556 l 0.1321,-0.32671 z m 7.35232,0 0.34293,0.11818 0.63026,0.11816 -0.15757,0.17843 -0.34293,0 0.34293,0.35684 0.26183,-0.2966 0.0788,-0.13208 c 0,0 1.00741,0.90404 1.58258,1.89079 0.5752,0.98708 0.84577,2.15038 0.84577,2.38667 l -0.19698,0.22243 c -0.12055,-0.14212 -0.25637,-0.26212 -0.39391,-0.38695 l -0.30122,0.044 -0.27574,-0.31049 0,0.38464 0.23635,0.17842 0.15758,0.17843 0.20854,-0.23636 c 0.053,0.0991 0.10501,0.19751 0.15757,0.29659 l 0,0.2966 -0.23635,0.26648 -0.43331,0.29891 -0.31513,0.31513 c 0.15288,-0.0109 0.30488,-0.029 0.46111,-0.0487 l 0,0.20856 -0.31513,0.77159 -0.28965,0.32672 -0.23635,0.50514 0,0.83185 0.0788,0.32671 -0.12979,0.14831 -0.28964,0.17842 -0.30123,0.25255 0.24792,0.2827 -0.34062,0.29891 0.0649,0.19233 -0.5121,0.57929 -0.34062,0 -0.28964,0.17842 -0.18305,0 0,-0.23866 -0.0788,-0.47503 c -0.10162,-0.29834 -0.20756,-0.59588 -0.31514,-0.8921 0,-0.21865 0.0154,-0.4348 0.0278,-0.65343 l 0.12979,-0.29659 -0.18304,-0.35685 0.0139,-0.48892 -0.25025,-0.28268 0.12517,-0.40781 -0.20391,-0.23172 -0.35451,0 -0.11824,-0.1344 -0.35451,0.22477 -0.14366,-0.16452 -0.32903,0.2827 c -0.22288,-0.25268 -0.44646,-0.50522 -0.66966,-0.7577 l -0.26184,-0.62563 0.23636,-0.35454 -0.1321,-0.14829 0.28963,-0.68356 c 0.23702,-0.29482 0.48415,-0.57811 0.73454,-0.86198 0.0163,-0.06072 0.002,-0.08454 -0.0115,-0.1345 l -0.14595,-0.16219 -0.15757,0 0,-0.53527 0.34294,-0.17841 0.26182,0 -0.0533,-0.20855 -0.20855,-0.20854 0.35221,-0.0741 0.19698,-0.22245 0.15755,-0.26647 0.28964,0 -0.0788,-0.20854 0.18306,-0.11819 0,0.23636 0.39391,0.0904 0.39392,-0.32672 0.0255,-0.15062 0.34293,-0.23635 c -0.12347,0.0154 -0.24781,0.0274 -0.36843,0.0603 l 0,-0.26879 0.1321,-0.29659 -0.1321,0 -0.28733,0.26647 -0.0788,0.1483 0.0788,0.20854 -0.13209,0.35684 -0.21084,-0.11818 -0.18308,-0.20854 -0.28963,0.20854 -0.10424,-0.47502 0.4982,-0.32671 0,-0.17842 0.31514,-0.20855 0.49817,-0.11818 z m -1.91861,1.1285 0.15758,0 c 0.0773,0.15763 0.14688,0.31067 0.20854,0.47502 l 0.18537,0.17842 -0.21087,0.20854 -0.28965,0.058 0.0533,-0.35684 0,-0.26647 -0.10421,-0.11818 0,-0.17843 z m 3.12817,3.20925 -0.0811,0.088 0.12054,0.43098 0.22246,0.25258 c 0.12732,0.36747 0.25223,0.71926 0.4194,1.07051 0.0948,0 0.18813,-0.006 0.28039,-0.0116 l -0.20162,-0.22708 0.10425,-0.26647 -0.20855,-0.23867 -0.35453,-0.7577 -0.30122,-0.34063 z"
       id="path3214"
       inkscape:connector-curvature="0"
       sodipodi:nodetypes="sssssccccccccccccccccccccccccccccccccccccccccccccccccccccccccccccccccccccccccccccccccccccccccccccccccccccccccccccccccccccccccccccccccccccccccccccccccccccccccccccccccccccccccccccccccccccccccccccccccccccccccccccccccccccccccccccccccccc"
       inkscape:export-filename="C:\Users\Lasse\Documents\GitHub\r-wow\images\icons\modicons_test_large.png"
       inkscape:export-xdpi="69.199997"
       inkscape:export-ydpi="69.199997" />
    <g
       id="g6855"
       transform="matrix(0.607149,0,0,0.607149,-147.3666,72.774378)"
       style="stroke:#f9f9f9" />
    <path
       style="fill:#550000;fill-opacity:1;stroke:none"
       d="m -397.875,185.63393 c -0.55012,0 -1.03125,0.72051 -1.03125,1.59375 l 0,8.6875 c 0,0.87324 0.48113,1.5625 1.03125,1.5625 l 1.34375,0 2.40625,2.40625 2.40625,-2.40625 7.34375,0 c 0.55012,0 1.03125,-0.68926 1.03125,-1.5625 l 0,-8.6875 c 0,-0.87324 -0.48113,-1.59375 -1.03125,-1.59375 l -13.5,0 z m 2.46875,5.1875 1.78125,0 0,1.78125 -1.78125,0 0,-1.78125 z m 3.375,0 1.8125,0 0,1.78125 -1.8125,0 0,-1.78125 z m 3.46875,0 1.8125,0 0,1.78125 -1.8125,0 0,-1.78125 z"
       id="rect7001"
       inkscape:connector-curvature="0"
       inkscape:export-filename="C:\Users\Lasse\Documents\GitHub\r-wow\images\icons\modicons_test_large.png"
       inkscape:export-xdpi="69.199997"
       inkscape:export-ydpi="69.199997" />
    <path
       style="fill:#550000;fill-opacity:1;stroke:none"
       d="m -394.89987,215.81564 -4.85013,4.80583 4.85013,4.80584 0,-3.09311 6.03979,0 0,-3.42545 -6.03979,0 0,-3.09311 z m 7.54974,5.11259 0,3.09311 -6.03979,0 0,3.42545 6.03979,0 0,3.09311 4.85013,-4.80583 -4.85013,-4.80584 z"
       id="path7021"
       inkscape:connector-curvature="0"
       inkscape:export-filename="C:\Users\Lasse\Documents\GitHub\r-wow\images\icons\modicons_test_large.png"
       inkscape:export-xdpi="69.199997"
       inkscape:export-ydpi="69.199997" />
  </g>
</svg>
