<?xml version="1.0" encoding="UTF-8" standalone="no"?>
<!-- Created with Inkscape (http://www.inkscape.org/) -->

<svg
   xmlns:dc="http://purl.org/dc/elements/1.1/"
   xmlns:cc="http://creativecommons.org/ns#"
   xmlns:rdf="http://www.w3.org/1999/02/22-rdf-syntax-ns#"
   xmlns:svg="http://www.w3.org/2000/svg"
   xmlns="http://www.w3.org/2000/svg"
   xmlns:sodipodi="http://sodipodi.sourceforge.net/DTD/sodipodi-0.dtd"
   xmlns:inkscape="http://www.inkscape.org/namespaces/inkscape"
   width="52.495106"
   height="58.5965"
   id="svg2"
   version="1.1"
   inkscape:version="0.48.3.1 r9886"
   sodipodi:docname="New document 1">
  <defs
     id="defs4" />
  <sodipodi:namedview
     id="base"
     pagecolor="#ffffff"
     bordercolor="#666666"
     borderopacity="1.0"
     inkscape:pageopacity="0.0"
     inkscape:pageshadow="2"
     inkscape:zoom="1.6934197"
     inkscape:cx="-113.54476"
     inkscape:cy="89.50509"
     inkscape:document-units="px"
     inkscape:current-layer="layer1"
     showgrid="false"
     fit-margin-top="0"
     fit-margin-left="0"
     fit-margin-right="0"
     fit-margin-bottom="0"
     inkscape:window-width="1920"
     inkscape:window-height="1018"
     inkscape:window-x="-8"
     inkscape:window-y="-8"
     inkscape:window-maximized="1" />
  <metadata
     id="metadata7">
    <rdf:RDF>
      <cc:Work
         rdf:about="">
        <dc:format>image/svg+xml</dc:format>
        <dc:type
           rdf:resource="http://purl.org/dc/dcmitype/StillImage" />
        <dc:title></dc:title>
      </cc:Work>
    </rdf:RDF>
  </metadata>
  <g
     inkscape:label="Layer 1"
     inkscape:groupmode="layer"
     id="layer1"
     transform="translate(-472.88216,-643.42212)">
    <g
       id="g3006"
       inkscape:export-xdpi="109.91369"
       inkscape:export-ydpi="109.91369">
      <path
         sodipodi:nodetypes="cscssc"
         inkscape:connector-curvature="0"
         id="path2996"
         d="m 490.98739,643.42212 c 0,0 6.69643,4.46428 7.05357,11.78571 0.36542,7.49109 1.96429,7.14286 1.96429,7.14286 1.31345,0.98509 9.79929,1.27803 6.96429,-4.73215 -2.59607,-5.50364 -3.03572,-9.64285 -8.83929,-11.69643 -5.80357,-2.05357 -7.14286,-2.49999 -7.14286,-2.49999 z"
         style="fill:#000000;stroke:none"
         inkscape:export-filename="C:\Users\Lasse\path3004-7.png"
         inkscape:export-xdpi="195.50443"
         inkscape:export-ydpi="195.50443" />
      <path
         sodipodi:nodetypes="csscsc"
         inkscape:connector-curvature="0"
         id="path2998"
         d="m 472.99754,670.16896 c 0,0 -1.2881,12.66281 4.74358,15.51066 6.03168,2.84785 9.82534,1.77759 9.43126,-2.85195 -0.39408,-4.62955 -1.95801,-3.663 -1.95801,-3.663 0,0 -5.60233,0.61809 -8.75298,-3.70449 -3.15065,-4.32257 -3.46385,-5.29122 -3.46385,-5.29122 z"
         style="fill:#000000;stroke:none" />
      <path
         inkscape:connector-curvature="0"
         id="path3000"
         d="m 482.14811,647.61854 c 0,0 -5.44643,6.33928 -1.07143,14.375 4.375,8.03571 7.58929,10.26785 9.10714,9.19643 1.51786,-1.07143 4.55357,-2.94643 3.48215,-5.80358 -1.07143,-2.85714 -9.01786,-3.48214 -11.51786,-17.76785 z"
         style="fill:#000000;stroke:none" />
      <path
         sodipodi:nodetypes="ccsc"
         inkscape:connector-curvature="0"
         id="path3002"
         d="m 494.91229,694.59382 c 10.47315,19.31157 39.89615,-3.30735 27.44768,-19.5079 -20.23569,-16.13495 -30.87072,-5.81521 -31.44722,5.67798 -0.3044,6.06882 0.95371,9.70459 3.99954,13.82992 z"
         style="fill:#000000;stroke:none"
         inkscape:export-filename="C:\Users\Lasse\path3004-7.png"
         inkscape:export-xdpi="195.50443"
         inkscape:export-ydpi="195.50443" />
      <path
         sodipodi:nodetypes="cscscc"
         inkscape:connector-curvature="0"
         id="path3004"
         d="m 514.38026,645.3864 c 0,0 4.375,8.30357 2.58928,13.48214 -1.78571,5.17857 0.53572,7.05357 0.53572,7.05357 0,0 7.48943,5.2638 7.76785,-0.35714 0.29423,-5.9402 -4.16562,-15.88364 -7.76785,-18.21429 -3.06838,-2.65295 -3.52315,-3.05258 -3.125,-1.96428 z"
         style="fill:#000000;stroke:none"
         inkscape:export-xdpi="195.50443"
         inkscape:export-ydpi="195.50443" />
    </g>
  </g>
</svg>
